<svg xmlns="http://www.w3.org/2000/svg" width="232" height="232">
	<path fill="#FFF" d="M0 0h232v232H0z" />
	<path
		d="M80 16h8v8h-8zM96 16h8v8h-8zM112 16h8v8h-8zM128 16h8v8h-8zM104 24h8v8h-8zM112 24h8v8h-8zM144 24h8v8h-8zM96 32h8v8h-8zM120 32h8v8h-8zM80 40h8v8h-8zM88 40h8v8h-8zM96 40h8v8h-8zM112 40h8v8h-8zM128 40h8v8h-8zM144 40h8v8h-8zM80 48h8v8h-8zM88 48h8v8h-8zM104 48h8v8h-8zM120 48h8v8h-8zM128 48h8v8h-8zM136 48h8v8h-8zM80 56h8v8h-8zM88 56h8v8h-8zM104 56h8v8h-8zM120 56h8v8h-8zM128 56h8v8h-8zM144 56h8v8h-8zM80 64h8v8h-8zM96 64h8v8h-8zM112 64h8v8h-8zM128 64h8v8h-8zM144 64h8v8h-8zM80 72h8v8h-8zM104 72h8v8h-8zM128 72h8v8h-8zM136 72h8v8h-8zM16 80h8v8h-8zM48 80h8v8h-8zM64 80h8v8h-8zM72 80h8v8h-8zM80 80h8v8h-8zM88 80h8v8h-8zM104 80h8v8h-8zM120 80h8v8h-8zM128 80h8v8h-8zM152 80h8v8h-8zM160 80h8v8h-8zM168 80h8v8h-8zM176 80h8v8h-8zM184 80h8v8h-8zM208 80h8v8h-8zM16 88h8v8h-8zM32 88h8v8h-8zM40 88h8v8h-8zM48 88h8v8h-8zM56 88h8v8h-8zM80 88h8v8h-8zM88 88h8v8h-8zM96 88h8v8h-8zM112 88h8v8h-8zM136 88h8v8h-8zM144 88h8v8h-8zM152 88h8v8h-8zM176 88h8v8h-8zM184 88h8v8h-8zM200 88h8v8h-8zM24 96h8v8h-8zM64 96h8v8h-8zM72 96h8v8h-8zM80 96h8v8h-8zM88 96h8v8h-8zM96 96h8v8h-8zM104 96h8v8h-8zM120 96h8v8h-8zM128 96h8v8h-8zM136 96h8v8h-8zM144 96h8v8h-8zM152 96h8v8h-8zM168 96h8v8h-8zM176 96h8v8h-8zM184 96h8v8h-8zM192 96h8v8h-8zM16 104h8v8h-8zM24 104h8v8h-8zM40 104h8v8h-8zM96 104h8v8h-8zM112 104h8v8h-8zM120 104h8v8h-8zM136 104h8v8h-8zM160 104h8v8h-8zM192 104h8v8h-8zM200 104h8v8h-8zM24 112h8v8h-8zM32 112h8v8h-8zM56 112h8v8h-8zM64 112h8v8h-8zM72 112h8v8h-8zM88 112h8v8h-8zM96 112h8v8h-8zM112 112h8v8h-8zM120 112h8v8h-8zM152 112h8v8h-8zM160 112h8v8h-8zM168 112h8v8h-8zM184 112h8v8h-8zM192 112h8v8h-8zM200 112h8v8h-8zM208 112h8v8h-8zM16 120h8v8h-8zM32 120h8v8h-8zM40 120h8v8h-8zM48 120h8v8h-8zM56 120h8v8h-8zM80 120h8v8h-8zM96 120h8v8h-8zM120 120h8v8h-8zM128 120h8v8h-8zM136 120h8v8h-8zM144 120h8v8h-8zM176 120h8v8h-8zM200 120h8v8h-8zM32 128h8v8h-8zM48 128h8v8h-8zM64 128h8v8h-8zM72 128h8v8h-8zM80 128h8v8h-8zM88 128h8v8h-8zM136 128h8v8h-8zM144 128h8v8h-8zM152 128h8v8h-8zM168 128h8v8h-8zM176 128h8v8h-8zM184 128h8v8h-8zM192 128h8v8h-8zM32 136h8v8h-8zM40 136h8v8h-8zM48 136h8v8h-8zM56 136h8v8h-8zM72 136h8v8h-8zM88 136h8v8h-8zM96 136h8v8h-8zM112 136h8v8h-8zM128 136h8v8h-8zM168 136h8v8h-8zM176 136h8v8h-8zM192 136h8v8h-8zM200 136h8v8h-8zM16 144h8v8h-8zM24 144h8v8h-8zM40 144h8v8h-8zM56 144h8v8h-8zM64 144h8v8h-8zM80 144h8v8h-8zM96 144h8v8h-8zM104 144h8v8h-8zM120 144h8v8h-8zM128 144h8v8h-8zM136 144h8v8h-8zM144 144h8v8h-8zM152 144h8v8h-8zM160 144h8v8h-8zM168 144h8v8h-8zM176 144h8v8h-8zM184 144h8v8h-8zM192 144h8v8h-8zM80 152h8v8h-8zM88 152h8v8h-8zM96 152h8v8h-8zM112 152h8v8h-8zM144 152h8v8h-8zM176 152h8v8h-8zM80 160h8v8h-8zM96 160h8v8h-8zM104 160h8v8h-8zM112 160h8v8h-8zM120 160h8v8h-8zM128 160h8v8h-8zM144 160h8v8h-8zM160 160h8v8h-8zM176 160h8v8h-8zM88 168h8v8h-8zM96 168h8v8h-8zM104 168h8v8h-8zM120 168h8v8h-8zM136 168h8v8h-8zM144 168h8v8h-8zM176 168h8v8h-8zM184 168h8v8h-8zM192 168h8v8h-8zM80 176h8v8h-8zM88 176h8v8h-8zM96 176h8v8h-8zM112 176h8v8h-8zM120 176h8v8h-8zM144 176h8v8h-8zM152 176h8v8h-8zM160 176h8v8h-8zM168 176h8v8h-8zM176 176h8v8h-8zM184 176h8v8h-8zM192 176h8v8h-8zM208 176h8v8h-8zM88 184h8v8h-8zM96 184h8v8h-8zM120 184h8v8h-8zM128 184h8v8h-8zM136 184h8v8h-8zM152 184h8v8h-8zM160 184h8v8h-8zM168 184h8v8h-8zM192 184h8v8h-8zM200 184h8v8h-8zM208 184h8v8h-8zM136 192h8v8h-8zM144 192h8v8h-8zM152 192h8v8h-8zM160 192h8v8h-8zM184 192h8v8h-8zM200 192h8v8h-8zM112 200h8v8h-8zM128 200h8v8h-8zM136 200h8v8h-8zM152 200h8v8h-8zM160 200h8v8h-8zM168 200h8v8h-8zM176 200h8v8h-8zM184 200h8v8h-8zM192 200h8v8h-8zM200 200h8v8h-8zM80 208h8v8h-8zM96 208h8v8h-8zM104 208h8v8h-8zM120 208h8v8h-8zM128 208h8v8h-8zM136 208h8v8h-8zM152 208h8v8h-8zM192 208h8v8h-8zM200 208h8v8h-8zM208 208h8v8h-8z" />
	<path fill="none" d="M24.4 24.4h39.2v39.2H24.4z" />
	<path d="M63.6 16H16v56h56V16h-8.4zm0 47.6H24.4V24.4h39.2v39.2z" />
	<path fill="none" d="M168.4 24.4h39.2v39.2h-39.2z" />
	<path d="M207.6 16H160v56h56V16h-8.4zm0 47.6h-39.2V24.4h39.2v39.2z" />
	<path fill="none" d="M24.4 168.4h39.2v39.2H24.4z" />
	<path d="M63.6 160H16v56h56v-56h-8.4zm0 47.6H24.4v-39.2h39.2v39.2z" />
	<g>
		<path d="M32 32h24v24H32z" />
	</g>
	<g>
		<path d="M176 32h24v24h-24z" />
	</g>
	<g>
		<path d="M32 176h24v24H32z" />
	</g>
</svg>